<?xml version="1.0" encoding="utf-8"?>
<!-- Generator: Adobe Illustrator 25.2.2, SVG Export Plug-In . SVG Version: 6.00 Build 0)  -->
<!DOCTYPE svg PUBLIC "-//W3C//DTD SVG 1.1 Tiny//EN" "http://www.w3.org/Graphics/SVG/1.1/DTD/svg11-tiny.dtd" [
	<!ENTITY ns_extend "http://ns.adobe.com/Extensibility/1.0/">
	<!ENTITY ns_ai "http://ns.adobe.com/AdobeIllustrator/10.0/">
	<!ENTITY ns_graphs "http://ns.adobe.com/Graphs/1.0/">
	<!ENTITY ns_vars "http://ns.adobe.com/Variables/1.0/">
	<!ENTITY ns_imrep "http://ns.adobe.com/ImageReplacement/1.0/">
	<!ENTITY ns_sfw "http://ns.adobe.com/SaveForWeb/1.0/">
	<!ENTITY ns_custom "http://ns.adobe.com/GenericCustomNamespace/1.0/">
	<!ENTITY ns_adobe_xpath "http://ns.adobe.com/XPath/1.0/">
]>
<svg version="1.1" baseProfile="tiny" xmlns:x="&ns_extend;" xmlns:i="&ns_ai;" xmlns:graph="&ns_graphs;"
	 xmlns="http://www.w3.org/2000/svg" xmlns:xlink="http://www.w3.org/1999/xlink" x="0px" y="0px" viewBox="0 0 790.5 821.4"
	 overflow="visible" xml:space="preserve">
<metadata>
	<sfw  xmlns="&ns_sfw;">
		<slices></slices>
		<sliceSourceBounds  bottomLeftOrigin="true" height="16383" width="16383" x="-7885" y="-8599.7"></sliceSourceBounds>
	</sfw>
</metadata>
<g id="Layer_1">
	<circle cx="397.1" cy="413.1" r="352.8"/>
	<g>
		<rect x="118.1" y="248.2" fill="#D1D3D4" width="10.2" height="160.9"/>
		<path fill="#D1D3D4" d="M229.6,409.1L157.1,320l58.5-71.8h12.7l-58.4,71.6l73.1,89.3H229.6z M146.4,409.1V248.2h10.2v160.9H146.4z
			"/>
		<path fill="#D1D3D4" d="M309.5,412.1c-47,0-83.8-36.8-83.8-83.8c0-46.9,36.8-83.6,83.8-83.6c46.9,0,83.6,36.7,83.6,83.6
			C393.1,375.3,356.4,412.1,309.5,412.1z M309.5,254.9c-41.3,0-73.6,32.3-73.6,73.4c0,41.3,32.3,73.6,73.6,73.6
			c41.2,0,73.4-32.3,73.4-73.6C383,287.1,350.7,254.9,309.5,254.9z"/>
		<polygon fill="#D1D3D4" points="524.2,409.1 420.3,261.9 420.3,409.1 410.1,409.1 410.1,248.2 422,248.2 525.3,394.5 525.3,248 
			535.5,248 535.5,409.1 		"/>
		<rect x="553.6" y="248.2" fill="#D1D3D4" width="10.2" height="160.9"/>
		<path fill="#D1D3D4" d="M665.2,409.1L592.6,320l58.5-71.8h12.7l-58.4,71.6l73.1,89.3H665.2z M582,409.1V248.2h10.2v160.9H582z"/>
		<g>
			<path fill="#D1D3D4" d="M266,381.6l-14.2-92.1l34.3,38.4l23.5-60.4l23.5,60.4l34.3-38.4l-14.4,92.1H266z M312,356.6l19.1,21.6
				l18.1,0.1L332,334.3L312,356.6z M292.6,378.4h34l-17-19.1L292.6,378.4z M270.1,378.4H288l19.2-21.4l-20-22.7L270.1,378.4z
				 M334.6,331.3l16.3,42.2l11.4-73.2L334.6,331.3z M268.3,373.5l16.3-42l-27.8-31.2L268.3,373.5z M288.7,330.6l21,23.6l20.9-23.4
				l-20.9-54L288.7,330.6z"/>
		</g>
	</g>
	<g>
		<rect x="118.1" y="424.4" fill="#D1D3D4" width="3.2" height="27.5"/>
	</g>
	<g>
		<polygon fill="#D1D3D4" points="174.3,452 158.5,429.8 158.5,452 155.3,452 155.3,424.4 158.4,424.4 174.1,446.4 174.1,424.4 
			177.3,424.4 177.3,452 		"/>
	</g>
	<g>
		<path fill="#D1D3D4" d="M275.4,452.5c-8.1,0-14.4-6.3-14.4-14.3c0-8,6.3-14.3,14.4-14.3c8.1,0,14.4,6.3,14.4,14.3
			C289.8,446.2,283.5,452.5,275.4,452.5z M275.4,427.1c-6.3,0-11.2,4.9-11.2,11.1c0,6.2,4.9,11.1,11.2,11.1
			c6.3,0,11.2-4.9,11.2-11.1C286.6,431.9,281.7,427.1,275.4,427.1z"/>
	</g>
	<g>
		<path fill="#D1D3D4" d="M321.1,452v-27.6h5.6c7.2,0,11.5,3.8,11.5,10.2c0,3.8-1.6,6.9-4.6,8.6l-0.4,0.3l5.1,8.5h-3.8l-4.3-7.6
			l-0.3,0.1c-1,0.2-1.9,0.2-2.9,0.2h-2.6v7.3H321.1z M324.3,441.6h2.7c5,0,8-2.6,8-7c0-4.5-2.9-7.1-8-7.1h-2.7V441.6z"/>
	</g>
	<g>
		<path fill="#D1D3D4" d="M370.1,452v-27.6h5.6c7.2,0,11.5,3.8,11.5,10.2c0,4.9-3,10.1-11.2,10.1h-2.6v7.3H370.1z M373.3,441.6h2.7
			c5,0,8-2.6,8-7c0-4.5-2.9-7.1-8-7.1h-2.7V441.6z"/>
	</g>
	<g>
		<path fill="#D1D3D4" d="M428.8,452.5c-8.1,0-14.4-6.3-14.4-14.3c0-8,6.3-14.3,14.4-14.3c8.1,0,14.4,6.3,14.4,14.3
			C443.3,446.2,436.9,452.5,428.8,452.5z M428.8,427.1c-6.3,0-11.2,4.9-11.2,11.1c0,6.2,4.9,11.1,11.2,11.1
			c6.3,0,11.2-4.9,11.2-11.1C440,431.9,435.1,427.1,428.8,427.1z"/>
	</g>
	<g>
		<path fill="#D1D3D4" d="M470.6,452v-27.6h5.6c7.2,0,11.5,3.8,11.5,10.2c0,3.8-1.6,6.9-4.6,8.6l-0.4,0.3l5.1,8.5h-3.8l-4.3-7.6
			l-0.3,0.1c-1,0.2-1.9,0.2-2.9,0.2h-2.6v7.3H470.6z M473.8,441.6h2.7c5,0,8-2.6,8-7c0-4.5-2.9-7.1-8-7.1h-2.7V441.6z"/>
	</g>
	<g>
		<path fill="#D1D3D4" d="M537.1,452l-1.8-4.5h-15.1l-1.8,4.5h-3.4l11.3-27.5h3.3l10.9,27.5H537.1z M521.3,444.5h12.8l-6.3-16.1
			L521.3,444.5z"/>
	</g>
	<g>
		<polygon fill="#D1D3D4" points="574,452 574,427.4 567.6,427.4 567.6,424.3 583.6,424.3 583.6,427.4 577.2,427.4 577.2,452 		"/>
	</g>
	<g>
		<polygon fill="#D1D3D4" points="615.5,452 615.5,424.4 630.4,424.4 630.4,427.5 618.7,427.5 618.7,436.2 629.5,436.2 629.5,439.2 
			618.7,439.2 618.7,448.9 630.4,448.9 630.4,452 		"/>
	</g>
	<g>
		<path fill="#D1D3D4" d="M662.2,452v-27.6h4.3c11.2,0,15.1,7.1,15.1,13.8c0,6.7-4,13.8-15.1,13.8H662.2z M665.4,448.8h1.3
			c7.4,0,11.7-4,11.7-10.6c0-6.6-4.4-10.6-11.7-10.6h-1.3V448.8z"/>
	</g>
	<g>
		<path fill="#D1D3D4" d="M219.5,452.5c-8,0-14.4-6.4-14.4-14.3c0-7.9,6.5-14.3,14.4-14.3c6.8,0,12.7,4.7,14.1,11.2h-3.4
			c-1.4-4.7-5.8-8-10.8-8c-6.2,0-11.2,5-11.2,11.1c0,6.1,5,11.1,11.2,11.1c5,0,9.4-3.3,10.8-8h3.3
			C232.2,447.7,226.2,452.5,219.5,452.5z"/>
	</g>
	<g>
		<rect x="50.5" y="471.6" fill="#D1D3D4" width="695" height="3.1"/>
	</g>
	<g>
		<g>
			<path fill="#D1D3D4" d="M111.3,513.6l7.9-18.1l3.1,0.1l7.9,18.1h-3.5l-1.6-3.9l-9-0.1l-1.7,4.1L111.3,513.6z M117.3,506.5h6.5
				l-3.2-7.8L117.3,506.5z"/>
		</g>
		<g>
			<path fill="#D1D3D4" d="M153.5,513.6l-5.6-6.9l-3.3,0v6.9h-3v-18.1h12c1.1,0,1.9,0.3,2.4,0.8c0.5,0.5,0.7,1.4,0.7,2.6v4.3
				c0,1.2-0.2,2.1-0.7,2.6c-0.5,0.5-1.3,0.8-2.4,0.8h-2.1l6.5,6.9H153.5z M144.6,503.7h7.5c0.6,0,1-0.1,1.2-0.4
				c0.2-0.2,0.3-0.6,0.3-1.2V500c0-0.6-0.1-0.9-0.3-1.2c-0.2-0.2-0.6-0.3-1.2-0.3h-7.5V503.7z"/>
		</g>
		<g>
			<path fill="#D1D3D4" d="M173.1,513.6c-1.3,0-2.2-0.3-2.7-0.9c-0.5-0.6-0.7-1.7-0.7-3.4v-9.6c0-1.6,0.2-2.8,0.7-3.3
				c0.5-0.6,1.4-0.9,2.7-0.9h8.4c1.3,0,2.2,0.3,2.7,0.9c0.5,0.6,0.7,1.7,0.7,3.3v1.7l-3.1,0.6v-3.4h-9v11.8h9v-3.9l3.2,0.8l-0.1,2.1
				c0,1.6-0.2,2.8-0.7,3.4c-0.5,0.6-1.4,0.9-2.7,0.9H173.1z"/>
		</g>
		<g>
			<polygon fill="#D1D3D4" points="212,513.6 212,505.7 201.6,505.7 201.6,513.6 198.5,513.6 198.5,495.5 201.6,495.5 201.6,502.6 
				212,502.6 212,495.5 215.1,495.5 215.1,513.6 			"/>
		</g>
		<g>
			<rect x="229.1" y="495.5" fill="#D1D3D4" width="3.1" height="18.1"/>
		</g>
		<g>
			<polygon fill="#D1D3D4" points="249.4,513.6 249.4,498.6 242.9,498.6 242.9,495.5 259,495.5 259,498.6 252.5,498.6 252.5,513.6 
							"/>
		</g>
		<g>
			<polygon fill="#D1D3D4" points="269.8,513.6 269.8,495.5 284,495.5 284,498.4 272.9,498.4 272.9,502.7 279.4,502.7 279.4,505.6 
				272.9,505.6 272.9,510.3 284.1,510.3 284.1,513.6 			"/>
		</g>
		<g>
			<polygon fill="#D1D3D4" points="294.9,513.6 301.5,504.3 294.8,495.5 298.9,495.5 303.5,501.8 307.8,495.4 311.3,495.5 
				305.3,503.7 312.8,513.6 308.5,513.6 303.3,506.4 298.5,513.6 			"/>
		</g>
		<g>
			<polygon fill="#D1D3D4" points="326.4,513.6 326.4,498.6 320,498.6 320,495.5 336,495.5 336,498.6 329.5,498.6 329.5,513.6 			
				"/>
		</g>
		<g>
			<path fill="#D1D3D4" d="M350.2,513.6c-1.3,0-2.2-0.3-2.7-0.9c-0.5-0.6-0.7-1.7-0.7-3.4v-13.9h3.1v14.8h9.5v-14.8h3.1v13.9
				c0,1.6-0.2,2.8-0.7,3.4c-0.5,0.6-1.4,0.9-2.7,0.9H350.2z"/>
		</g>
		<g>
			<path fill="#D1D3D4" d="M388.4,513.6l-5.6-6.9l-3.3,0v6.9h-3v-18.1h12c1.1,0,1.9,0.3,2.4,0.8c0.5,0.5,0.7,1.4,0.7,2.6v4.3
				c0,1.2-0.2,2.1-0.7,2.6c-0.5,0.5-1.3,0.8-2.4,0.8h-2.1l6.5,6.9H388.4z M379.5,503.7h7.5c0.6,0,1-0.1,1.2-0.4
				c0.2-0.2,0.3-0.6,0.3-1.2V500c0-0.6-0.1-0.9-0.3-1.2c-0.2-0.2-0.6-0.3-1.2-0.3h-7.5V503.7z"/>
		</g>
		<g>
			<path fill="#D1D3D4" d="M401.3,513.6l7.9-18.1l3.1,0.1l7.9,18.1h-3.5l-1.6-3.9l-9-0.1l-1.7,4.1L401.3,513.6z M407.3,506.5h6.5
				l-3.2-7.8L407.3,506.5z"/>
		</g>
		<g>
			<polygon fill="#D1D3D4" points="431.6,513.6 431.6,495.5 434.7,495.5 434.7,510.3 445.2,510.3 445.2,513.6 			"/>
		</g>
		<g>
			<polygon fill="#D1D3D4" points="474,513.6 474,495.5 488.2,495.5 488.2,498.4 477,498.4 477,502.7 483.5,502.7 483.5,505.6 
				477,505.6 477,510.3 488.3,510.3 488.3,513.6 			"/>
		</g>
		<g>
			<polygon fill="#D1D3D4" points="501.2,513.6 501.2,495.5 504.2,495.5 504.2,510.3 514.8,510.3 514.8,513.6 			"/>
		</g>
		<g>
			<polygon fill="#D1D3D4" points="526.4,513.6 526.4,495.5 540.6,495.5 540.6,498.4 529.5,498.4 529.5,502.7 536,502.7 536,505.6 
				529.5,505.6 529.5,510.3 540.7,510.3 540.7,513.6 			"/>
		</g>
		<g>
			<path fill="#D1D3D4" d="M568.9,513.6v-11.2c0-0.2,0-0.5,0-0.8c0-0.3,0-0.7,0.1-1.1l0.1-0.7l-0.3,0.7c-0.2,0.5-0.3,0.9-0.5,1.2
				c-0.1,0.3-0.2,0.5-0.4,0.7l-5.3,9.1l-0.6,0l-5.2-9.1c-0.2-0.3-0.4-0.7-0.5-1c-0.1-0.3-0.2-0.6-0.3-0.9l-0.3-0.8l0.1,0.9
				c0,0.4,0,0.7,0.1,1c0,0.3,0,0.6,0,0.9v11.2h-2.5v-18.1h2.6l6.6,11.1l6.6-11.2l2.4,0v18.1H568.9z"/>
		</g>
		<g>
			<polygon fill="#D1D3D4" points="585.4,513.6 585.4,495.5 599.6,495.5 599.6,498.4 588.5,498.4 588.5,502.7 595,502.7 595,505.6 
				588.5,505.6 588.5,510.3 599.8,510.3 599.8,513.6 			"/>
		</g>
		<g>
			<path fill="#D1D3D4" d="M626.8,513.6l-10.3-11.3c-0.2-0.3-0.5-0.5-0.6-0.8c-0.2-0.2-0.4-0.5-0.5-0.7l-0.2-0.3l0,0.4
				c0,0.6,0.1,1.1,0.1,1.6c0,0.5,0,0.9,0,1.3v9.8h-2.7v-18.1h2.1l9.8,10.7c0.3,0.4,0.6,0.7,0.9,1c0.3,0.3,0.5,0.6,0.7,1l0.2,0.3
				c0,0-0.1-2.1-0.1-2.6c0-0.4,0-0.8,0-1v-9.5h2.7v18.1H626.8z"/>
		</g>
		<g>
			<polygon fill="#D1D3D4" points="646.2,513.6 646.2,498.6 639.7,498.6 639.7,495.5 655.8,495.5 655.8,498.6 649.3,498.6 
				649.3,513.6 			"/>
		</g>
		<g>
			<path fill="#D1D3D4" d="M669.5,513.6c-1.3,0-2.3-0.3-2.7-0.9c-0.5-0.6-0.7-1.7-0.7-3.3v-0.5l2.7-0.7v2.1H679v-4.4h-8.9
				c-1.3,0-2.2-0.3-2.7-0.9c-0.5-0.6-0.7-1.7-0.7-3.3v-2c0-1.6,0.2-2.8,0.7-3.3c0.5-0.6,1.4-0.9,2.7-0.9h8c1.3,0,2.2,0.3,2.7,0.8
				c0.5,0.6,0.7,1.6,0.7,3.1v0.4l-2.7,0.8v-2h-9.4v4.1h8.9c1.3,0,2.3,0.3,2.7,0.9c0.5,0.6,0.7,1.7,0.7,3.3v2.5
				c0,1.6-0.2,2.8-0.7,3.3c-0.5,0.6-1.4,0.9-2.7,0.9H669.5z"/>
		</g>
		<g>
			<path fill="#D1D3D4" d="M457.7,500.9c0,3.1-2.4,5.6-5.6,5.6c-3.1,0-5.7-2.4-5.7-5.6c0-3,2.5-5.5,5.7-5.5
				C455.2,495.4,457.7,497.9,457.7,500.9z M447.8,500.9c0,2.4,1.8,4.4,4.3,4.4c2.4,0,4.2-1.9,4.2-4.3c0-2.4-1.8-4.4-4.2-4.4
				C449.6,496.5,447.8,498.5,447.8,500.9z M451.2,503.8h-1.3v-5.5c0.5-0.1,1.2-0.2,2.1-0.2c1,0,1.5,0.2,1.9,0.4
				c0.3,0.2,0.5,0.7,0.5,1.2c0,0.6-0.5,1.1-1.1,1.3v0.1c0.5,0.2,0.8,0.6,1,1.3c0.2,0.8,0.3,1.2,0.4,1.4h-1.4
				c-0.2-0.2-0.3-0.7-0.4-1.3c-0.1-0.6-0.4-0.9-1.1-0.9h-0.6V503.8z M451.2,500.7h0.6c0.7,0,1.3-0.2,1.3-0.8c0-0.5-0.4-0.8-1.2-0.8
				c-0.3,0-0.6,0-0.7,0.1V500.7z"/>
		</g>
	</g>
</g>
<g id="Dimension_Layer">
</g>
</svg>
